<svg width="24" height="25" viewBox="0 0 24 25" fill="none" xmlns="http://www.w3.org/2000/svg">
<path d="M11.4591 4.00935L11.4792 4.00759C11.6596 3.99289 11.8449 3.9987 12.026 3.99878C15.975 4.00046 19.1702 6.68771 20.1836 10.4471C20.7705 12.624 20.4404 14.7342 19.2371 16.6717C17.8001 18.9855 15.1912 20.7269 12.4485 20.9518C10.6046 21.2122 7.95687 20.0724 6.60387 18.8398C4.92522 17.3105 3.5531 15.024 3.4475 12.7021C3.35499 10.6683 4.3892 8.24719 5.74569 6.7614C7.12809 5.24719 9.39717 4.10201 11.4591 4.00935ZM12.3355 20.376C14.4142 20.3106 16.3858 19.0848 17.7767 17.6037C20.9063 14.2711 20.4415 9.60398 17.1723 6.54889C15.6656 5.14084 13.6316 4.50941 11.5924 4.57549C9.45492 4.76366 7.38485 5.68151 5.98527 7.34951C4.79517 8.76788 3.87361 11.0456 4.03842 12.9177C4.22611 15.0495 5.57143 17.2235 7.18899 18.579C8.52583 19.6992 10.5689 20.4952 12.3355 20.376Z" fill="#0BC8C2" stroke="#0BC8C2" stroke-width="0.3"/>
<path d="M11.6259 5.29688C13.2794 5.11095 15.2842 5.90236 16.4771 7.00133C19.7659 10.0313 20.1366 14.0699 17.0411 17.402C15.7414 18.8011 14.2411 19.3948 12.3487 19.463C10.0174 19.5176 8.5339 18.8972 6.94592 17.2416C5.80004 16.047 5.01768 14.7694 4.83663 13.0985C4.5925 10.8455 5.58483 8.83305 7.18281 7.31858C8.40636 6.15897 9.95665 5.47695 11.6259 5.29688ZM12.2692 18.8891C13.5631 18.8129 14.5406 18.6278 15.6196 17.8767C17.457 16.5977 18.6951 14.3057 18.5695 12.0574C18.3869 8.78933 15.1007 5.66532 11.7565 5.8593L11.6725 5.86467C9.79427 6.04872 8.07018 7.03819 6.87873 8.48862C4.67984 11.1654 4.95051 14.2536 7.25069 16.7312C8.6374 18.2247 10.2211 19.0436 12.2692 18.8891Z" fill="#0BC8C2" stroke="#0BC8C2" stroke-width="0.3"/>
<path d="M13.5918 11.4267C13.3667 11.1972 13.0912 10.9316 13.0332 10.6025C12.9748 10.2718 13.1463 9.96847 13.4931 9.92392C14.223 9.8301 16.6116 11.5754 16.9227 12.0866C17.0815 12.3476 17.0287 12.6568 16.8409 12.8881C16.4418 13.3795 14.3333 14.8412 13.5975 14.9169C13.3033 14.9292 13.0459 14.7562 13.024 14.4481C12.9972 14.0704 13.2423 13.7394 13.4788 13.4712C12.0405 13.5572 7.91149 13.6359 7.0809 12.9027C6.82147 12.6737 6.78855 12.2668 7.02221 12.0079C7.39507 11.5947 8.09141 11.5449 8.60587 11.4865C9.7455 11.3573 10.7214 11.3998 11.8306 11.3508C12.4333 11.3806 12.973 11.3643 13.5918 11.4267ZM13.6519 14.3235C14.1963 14.1553 16.1396 12.8715 16.453 12.4246C16.1422 11.9282 14.202 10.6507 13.609 10.4962C13.7679 10.8672 14.6346 11.4657 14.4928 11.8723C14.38 12.1961 13.5477 11.9946 13.2822 11.9789C12.7209 11.9456 12.1861 11.9433 11.6308 11.9218C10.6249 11.9517 9.70879 11.9388 8.68901 12.0508C8.29099 12.0945 7.71476 12.1137 7.41502 12.4233C8.29462 13.1044 12.8952 12.9771 13.9282 12.8463C14.0793 12.8271 14.2564 12.7808 14.3878 12.8836C14.8908 13.2771 13.7322 13.8474 13.6051 14.2927L13.6105 14.3173C13.6247 14.3204 13.6372 14.324 13.6519 14.3235Z" fill="#0BC8C2" stroke="#0BC8C2" stroke-width="0.3"/>
</svg>
