<svg width="135" height="89" viewBox="0 0 135 89" fill="none" xmlns="http://www.w3.org/2000/svg">
<path d="M0.397705 0H134.315C134.443 0.293454 134.574 0.467721 134.451 0.790009C134.415 0.883422 134.365 0.970757 134.316 1.05695C134.501 1.3533 134.524 1.59248 134.533 1.93587C134.673 7.07953 134.546 12.2651 134.547 17.4125L134.548 47.7918C134.548 52.7888 134.547 55.5903 134.547 60.5873C134.547 61.8509 134.751 64.2359 134.5 65.3906C134.471 65.5243 134.425 65.6527 134.377 65.7811C134.653 66.4708 134.691 73.7801 134.437 74.4127C134.404 74.4946 134.363 74.568 134.317 74.6431C134.432 74.8312 134.503 75.0093 134.521 75.2302C134.633 76.5461 134.705 86.9681 134.498 87.8353C134.462 87.987 134.396 88.1234 134.315 88.255H2.62262H0.397705V0Z" fill="white"/>
<path d="M25.4658 50.4631C25.7603 46.8471 26.6506 43.5764 29.5501 41.1271C31.8558 39.1795 34.9045 38.3738 37.8942 38.6217C41.1327 38.8902 44.2145 40.3486 46.3198 42.8325C48.0262 44.8458 49.0691 47.7384 49.1235 50.3866C54.2772 50.3799 59.4665 50.5038 64.6161 50.33C62.6988 50.893 60.8134 51.5042 59.0246 52.4018C52.9419 55.4534 48.0429 61.1085 44.8264 66.9831C43.5216 69.3658 42.2021 72.0926 41.64 74.7587L134.602 74.8536V75.3832V87.8281V88.3576H0.443917C0.443917 88.3576 0.301803 79.1116 0.414629 74.5888H5.96175H8.07494C8.10444 66.4603 7.84048 58.491 8.0078 50.3664L25.4658 50.4631Z" fill="#111111"/>
<path d="M0.397672 0H134.314C134.444 0.293454 134.578 0.467721 134.452 0.790009C134.416 0.883422 134.365 0.970757 134.314 1.05695C134.504 1.3533 134.526 1.59248 134.536 1.93587C134.678 7.07953 134.549 12.2651 134.55 17.4125L134.551 47.7918L134.55 60.5873C134.55 61.8509 134.55 63.9452 134.502 65.3906C134.502 65.3906 134.63 76.9065 134.63 75.0431C134.276 73.045 135.158 66.9154 131.929 59.7803C128.699 52.6452 117.096 30.5408 109.428 25.2241C107.982 24.2217 106.107 23.6355 104.346 23.9613C101.982 24.3983 100.522 26.6646 99.2615 28.5136C95.9642 33.3503 93.0312 39.0876 91.2163 44.6395C90.6723 46.3043 90.0647 50.0987 89.4216 51.3163C83.7395 48.8119 73.6466 49.1754 67.4465 49.6395C65.8819 43.7384 61.7973 37.3203 56.4131 34.2038C52.5098 31.9444 48.596 31.7596 44.2334 32.371C43.5175 26.1476 41.7659 20.2655 37.8267 15.2979C36.9733 14.2217 36.0636 13.1203 34.9792 12.2672C34.1584 11.6216 33.2664 11.2072 32.2894 10.8545C32.2796 9.3435 32.2957 7.82742 32.2492 6.31736C32.7888 6.20025 33.8009 6.06132 34.1161 5.55457C34.1252 5.53987 34.1328 5.52428 34.1411 5.50917C33.9963 5.28221 33.8966 5.22107 33.6294 5.15644C33.1594 5.04271 32.4921 5.11644 32.0026 5.11972C31.876 4.62864 31.7971 4.20422 31.417 3.83951L31.1275 3.75877C30.6765 4.07347 30.6285 4.40621 30.5372 4.92144L30.5035 5.11977C29.5557 5.13103 28.6057 5.15566 27.658 5.14757C28.5249 5.70148 29.2926 6.1463 30.3037 6.39526C30.2522 7.87932 30.236 9.37495 30.1178 10.855C25.9841 11.7692 21.4935 18.8824 19.2783 22.3499C11.409 34.6679 5.15967 49.1351 1.83135 63.3612C1.18805 66.1109 0.446768 69.1898 0.370117 72.0139C0.397728 72.9292 0.397672 74.7789 0.397672 74.7789C2.56468 74.7789 3.77963 74.7789 5.94664 74.7789C3.83285 74.7789 0.397672 74.7789 0.397672 74.7789C0.397672 74.7789 0.54752 83.7233 0.552573 88.255H0.397672V0Z" fill="#111111"/>
<path d="M3.49569 76.5807H4.56585C4.86074 76.5807 5.11282 76.6854 5.3221 76.8946C5.53137 77.0944 5.63601 77.3417 5.63601 77.6366V78.6925H4.56585V77.9648C4.56585 77.8697 4.53256 77.7888 4.46597 77.7222C4.38987 77.6461 4.30426 77.6081 4.20913 77.6081H3.85241C3.75729 77.6081 3.67643 77.6461 3.60984 77.7222C3.53374 77.7888 3.49569 77.8697 3.49569 77.9648V84.7425C3.49569 84.8471 3.52899 84.9327 3.59558 84.9993C3.67168 85.0659 3.75729 85.0992 3.85241 85.0992H4.20913C4.30426 85.0992 4.38511 85.0659 4.4517 84.9993C4.5278 84.9327 4.56585 84.8471 4.56585 84.7425V83.972H5.63601V85.0706C5.63601 85.3655 5.53137 85.6176 5.3221 85.8269C5.11282 86.0362 4.86074 86.1408 4.56585 86.1408H3.49569C3.30544 86.1408 3.05336 86.0362 2.73945 85.8269C2.53017 85.7032 2.42554 85.4511 2.42554 85.0706V77.6366C2.42554 77.3227 2.53493 77.0659 2.75372 76.8661C2.97251 76.6759 3.21983 76.5807 3.49569 76.5807Z" fill="white"/>
<path d="M7.27881 76.5807H10.475V77.6366H8.3347V80.8328H10.0327V81.8887H8.3347V85.0849H10.475V86.1408H7.27881V76.5807Z" fill="white"/>
<path d="M12.1192 76.5237H13.2179L15.0443 82.7734L15.0585 76.5237H16.1572V86.0552L16.1858 86.1408H15.0585L13.2036 79.8768L13.2179 86.1408H12.1477V76.5807L12.1192 76.5237Z" fill="white"/>
<path d="M20.6184 76.5237V77.5795H19.5483V86.1408H18.4924V77.5795H17.408V76.5237H20.6184Z" fill="white"/>
<path d="M23.3421 77.6081V80.6188H24.0413C24.1364 80.6188 24.2172 80.5855 24.2838 80.5189C24.3504 80.4523 24.3837 80.3715 24.3837 80.2763V77.9648C24.3837 77.8602 24.3504 77.7746 24.2838 77.708C24.2172 77.6414 24.1364 77.6081 24.0413 77.6081H23.3421ZM22.3005 76.5807H24.398C24.6834 76.5807 24.9307 76.6854 25.14 76.8946C25.3492 77.1229 25.4539 77.3703 25.4539 77.6366V80.6188C25.4539 80.9803 25.3445 81.2228 25.1257 81.3465C24.9164 81.4702 24.7452 81.5558 24.612 81.6033L25.511 86.1408H24.4836L23.5989 81.6604H23.3421V86.1408H22.3147L22.3005 76.5807Z" fill="white"/>
<path d="M28.2096 76.4951H29.2655C29.589 76.4951 29.8458 76.5998 30.036 76.809C30.2358 77.0183 30.3357 77.2561 30.3357 77.5225V85.1563C30.3357 85.4511 30.2311 85.7032 30.0218 85.9125C29.8125 86.1218 29.5604 86.2264 29.2655 86.2264H28.2096C27.8957 86.2264 27.6389 86.117 27.4391 85.8982C27.2489 85.6794 27.1538 85.4321 27.1538 85.1563V77.5225C27.1538 77.2466 27.2536 77.0088 27.4534 76.809C27.6627 76.5998 27.9148 76.4951 28.2096 76.4951ZM28.5664 77.5653C28.4712 77.5653 28.3856 77.6033 28.3095 77.6794C28.2525 77.7555 28.2239 77.8364 28.2239 77.922V84.8423C28.2239 84.9375 28.262 85.0183 28.3381 85.0849C28.4047 85.161 28.4808 85.1991 28.5664 85.1991H28.9231C29.0182 85.1991 29.0991 85.161 29.1657 85.0849C29.2322 85.0183 29.2655 84.9375 29.2655 84.8423V77.922C29.2655 77.8174 29.2322 77.7317 29.1657 77.6652C29.0991 77.5986 29.0182 77.5653 28.9231 77.5653H28.5664Z" fill="white"/>
<path d="M35.7051 76.5807H38.9013V77.6366H36.7609V80.8328H38.4589V81.8887H36.7609V85.0849H38.9013V86.1408H35.7051V76.5807Z" fill="white"/>
<path d="M40.788 76.5807H41.8296L42.8569 79.7484L43.87 76.5807H44.8831L44.8688 86.1408H43.7559L43.7701 79.4059L42.9283 82.7734H42.7856L41.9009 79.4059L41.9152 86.1408H40.8165L40.788 76.5807Z" fill="white"/>
<path d="M46.8174 76.5807H48.8864C49.2098 76.5807 49.4714 76.6521 49.6712 76.7948C49.8709 76.9374 49.9708 77.2181 49.9708 77.6366V80.6473C49.9708 80.9993 49.8662 81.2561 49.6569 81.4178C49.4476 81.5796 49.1908 81.6604 48.8864 81.6604H47.9161L47.859 81.6747V86.1408H46.8317L46.8174 76.5807ZM47.859 77.6081V80.6188H48.5582C48.6533 80.6188 48.7342 80.5855 48.8008 80.5189C48.8674 80.4523 48.9007 80.3715 48.9007 80.2763V77.9648C48.9007 77.8602 48.8674 77.7746 48.8008 77.708C48.7342 77.6414 48.6533 77.6081 48.5582 77.6081H47.859Z" fill="white"/>
<path d="M52.927 77.6081V80.6188H53.6262C53.7213 80.6188 53.8022 80.5855 53.8688 80.5189C53.9353 80.4523 53.9686 80.3715 53.9686 80.2763V77.9648C53.9686 77.8602 53.9353 77.7746 53.8688 77.708C53.8022 77.6414 53.7213 77.6081 53.6262 77.6081H52.927ZM51.8854 76.5807H53.9829C54.2683 76.5807 54.5156 76.6854 54.7249 76.8946C54.9342 77.1229 55.0388 77.3703 55.0388 77.6366V80.6188C55.0388 80.9803 54.9294 81.2228 54.7106 81.3465C54.5013 81.4702 54.3301 81.5558 54.1969 81.6033L55.0959 86.1408H54.0685L53.1838 81.6604H52.927V86.1408H51.8997L51.8854 76.5807Z" fill="white"/>
<path d="M56.9384 76.5807H60.1346V77.6366H57.9943V80.8328H59.6923V81.8887H57.9943V85.0849H60.1346V86.1408H56.9384V76.5807Z" fill="white"/>
<path d="M64.1331 86.1979H63.0915C62.8061 86.1979 62.5588 86.1028 62.3495 85.9125C62.1498 85.7127 62.0499 85.4702 62.0499 85.1848V84.0576H63.1058V84.7995C63.1058 84.8947 63.1391 84.9803 63.2057 85.0564C63.2722 85.123 63.3531 85.1563 63.4482 85.1563H63.7907C63.8858 85.1563 63.9667 85.123 64.0332 85.0564C64.0998 84.9803 64.1331 84.8947 64.1331 84.7995V82.4452C64.1331 82.3501 64.0998 82.2549 64.0332 82.1598C63.9667 82.0647 63.8858 82.0029 63.7907 81.9743L63.0202 81.746C62.7158 81.6509 62.4637 81.4987 62.2639 81.2894C62.0737 81.0706 61.9785 80.8233 61.9785 80.5474V77.551C61.9785 77.2561 62.0784 77.0088 62.2782 76.809C62.4779 76.6093 62.7253 76.5094 63.0202 76.5094H64.0618C64.3472 76.5094 64.5897 76.6093 64.7895 76.809C64.9988 77.0088 65.1034 77.2561 65.1034 77.551V78.664H64.0475V77.922C64.0475 77.8269 64.0142 77.746 63.9476 77.6794C63.881 77.6128 63.8002 77.5795 63.7051 77.5795H63.3626C63.2675 77.5795 63.1866 77.6128 63.12 77.6794C63.0535 77.746 63.0202 77.8269 63.0202 77.922V80.205C63.0202 80.3001 63.0535 80.4048 63.12 80.5189C63.1961 80.6235 63.277 80.6901 63.3626 80.7187L64.1331 80.9612C64.4375 81.0564 64.6896 81.2038 64.8894 81.4036C65.0796 81.6128 65.1747 81.8554 65.1747 82.1313V85.1848C65.1747 85.4702 65.0701 85.7127 64.8608 85.9125C64.6611 86.1028 64.4185 86.1979 64.1331 86.1979Z" fill="white"/>
<path d="M70.842 86.1408H69.7433L69.4579 84.0005H68.188L67.9026 86.1408H66.8039L68.3022 76.5094H69.3438L70.842 86.1408ZM68.3307 82.9161H69.3152L68.8158 79.2205L68.3307 82.9161Z" fill="white"/>
<path d="M73.6309 77.6081V80.6188H74.33C74.4252 80.6188 74.506 80.5855 74.5726 80.5189C74.6392 80.4523 74.6725 80.3715 74.6725 80.2763V77.9648C74.6725 77.8602 74.6392 77.7746 74.5726 77.708C74.506 77.6414 74.4252 77.6081 74.33 77.6081H73.6309ZM72.5893 76.5807H74.6868C74.9721 76.5807 75.2195 76.6854 75.4287 76.8946C75.638 77.1229 75.7427 77.3703 75.7427 77.6366V80.6188C75.7427 80.9803 75.6333 81.2228 75.4145 81.3465C75.2052 81.4702 75.034 81.5558 74.9008 81.6033L75.7997 86.1408H74.7724L73.8877 81.6604H73.6309V86.1408H72.6035L72.5893 76.5807Z" fill="white"/>
<path d="M78.741 86.1408H77.6851V76.5807H78.741V86.1408Z" fill="white"/>
<path d="M84.4296 86.1408H83.3309L83.0455 84.0005H81.7756L81.4902 86.1408H80.3915L81.8897 76.5094H82.9313L84.4296 86.1408ZM81.9183 82.9161H82.9028L82.4034 79.2205L81.9183 82.9161Z" fill="white"/>
<path d="M87.247 76.5807V85.0706H89.3873V86.1408H86.1768V76.5807H87.247Z" fill="white"/>
<path d="M94.4083 76.5807H95.45L96.4773 79.7484L97.4904 76.5807H98.5035L98.4892 86.1408H97.3763L97.3905 79.4059L96.5487 82.7734H96.406L95.5213 79.4059L95.5356 86.1408H94.4369L94.4083 76.5807Z" fill="white"/>
<path d="M101.536 76.4951H102.592C102.916 76.4951 103.173 76.5998 103.363 76.809C103.563 77.0183 103.663 77.2561 103.663 77.5225V85.1563C103.663 85.4511 103.558 85.7032 103.349 85.9125C103.139 86.1218 102.887 86.2264 102.592 86.2264H101.536C101.223 86.2264 100.966 86.117 100.766 85.8982C100.576 85.6794 100.481 85.4321 100.481 85.1563V77.5225C100.481 77.2466 100.58 77.0088 100.78 76.809C100.99 76.5998 101.242 76.4951 101.536 76.4951ZM101.893 77.5653C101.798 77.5653 101.712 77.6033 101.636 77.6794C101.579 77.7555 101.551 77.8364 101.551 77.922V84.8423C101.551 84.9375 101.589 85.0183 101.665 85.0849C101.731 85.161 101.808 85.1991 101.893 85.1991H102.25C102.345 85.1991 102.426 85.161 102.492 85.0849C102.559 85.0183 102.592 84.9375 102.592 84.8423V77.922C102.592 77.8174 102.559 77.7317 102.492 77.6652C102.426 77.5986 102.345 77.5653 102.25 77.5653H101.893Z" fill="white"/>
<path d="M105.648 76.5237H106.718V84.771C106.718 84.8566 106.746 84.9327 106.804 84.9993C106.861 85.0659 106.913 85.1039 106.961 85.1135C106.999 85.1135 107.022 85.1135 107.032 85.1135C107.041 85.1135 107.051 85.1182 107.06 85.1277H107.417C107.503 85.1277 107.579 85.0944 107.645 85.0278C107.722 84.9517 107.76 84.8661 107.76 84.771V76.5237H108.83V85.1277C108.83 85.4226 108.725 85.6747 108.516 85.884C108.307 86.1028 108.054 86.2121 107.76 86.2121H106.704C106.409 86.2121 106.161 86.1028 105.962 85.884C105.752 85.6747 105.648 85.4226 105.648 85.1277V76.5237Z" fill="white"/>
<path d="M111.87 77.6081V80.6188H112.569C112.664 80.6188 112.745 80.5855 112.812 80.5189C112.879 80.4523 112.912 80.3715 112.912 80.2763V77.9648C112.912 77.8602 112.879 77.7746 112.812 77.708C112.745 77.6414 112.664 77.6081 112.569 77.6081H111.87ZM110.829 76.5807H112.926C113.211 76.5807 113.459 76.6854 113.668 76.8946C113.877 77.1229 113.982 77.3703 113.982 77.6366V80.6188C113.982 80.9803 113.873 81.2228 113.654 81.3465C113.445 81.4702 113.273 81.5558 113.14 81.6033L114.039 86.1408H113.012L112.127 81.6604H111.87V86.1408H110.843L110.829 76.5807Z" fill="white"/>
<path d="M117.037 86.1408H115.981V76.5807H117.037V86.1408Z" fill="white"/>
<path d="M121.142 86.1979H120.1C119.815 86.1979 119.568 86.1028 119.359 85.9125C119.159 85.7127 119.059 85.4702 119.059 85.1848V84.0576H120.115V84.7995C120.115 84.8947 120.148 84.9803 120.215 85.0564C120.281 85.123 120.362 85.1563 120.457 85.1563H120.8C120.895 85.1563 120.976 85.123 121.042 85.0564C121.109 84.9803 121.142 84.8947 121.142 84.7995V82.4452C121.142 82.3501 121.109 82.2549 121.042 82.1598C120.976 82.0647 120.895 82.0029 120.8 81.9743L120.029 81.746C119.725 81.6509 119.473 81.4987 119.273 81.2894C119.083 81.0706 118.988 80.8233 118.988 80.5474V77.551C118.988 77.2561 119.087 77.0088 119.287 76.809C119.487 76.6093 119.734 76.5094 120.029 76.5094H121.071C121.356 76.5094 121.599 76.6093 121.798 76.809C122.008 77.0088 122.112 77.2561 122.112 77.551V78.664H121.056V77.922C121.056 77.8269 121.023 77.746 120.957 77.6794C120.89 77.6128 120.809 77.5795 120.714 77.5795H120.372C120.276 77.5795 120.196 77.6128 120.129 77.6794C120.062 77.746 120.029 77.8269 120.029 77.922V80.205C120.029 80.3001 120.062 80.4048 120.129 80.5189C120.205 80.6235 120.286 80.6901 120.372 80.7187L121.142 80.9612C121.447 81.0564 121.699 81.2038 121.898 81.4036C122.089 81.6128 122.184 81.8554 122.184 82.1313V85.1848C122.184 85.4702 122.079 85.7127 121.87 85.9125C121.67 86.1028 121.427 86.1979 121.142 86.1979Z" fill="white"/>
<path d="M125.197 76.5807H126.267C126.562 76.5807 126.814 76.6854 127.023 76.8946C127.233 77.0944 127.337 77.3417 127.337 77.6366V78.6925H126.267V77.9648C126.267 77.8697 126.234 77.7888 126.167 77.7222C126.091 77.6461 126.006 77.6081 125.91 77.6081H125.554C125.459 77.6081 125.378 77.6461 125.311 77.7222C125.235 77.7888 125.197 77.8697 125.197 77.9648V84.7425C125.197 84.8471 125.23 84.9327 125.297 84.9993C125.373 85.0659 125.459 85.0992 125.554 85.0992H125.91C126.006 85.0992 126.086 85.0659 126.153 84.9993C126.229 84.9327 126.267 84.8471 126.267 84.7425V83.972H127.337V85.0706C127.337 85.3655 127.233 85.6176 127.023 85.8269C126.814 86.0362 126.562 86.1408 126.267 86.1408H125.197C125.007 86.1408 124.755 86.0362 124.441 85.8269C124.231 85.7032 124.127 85.4511 124.127 85.0706V77.6366C124.127 77.3227 124.236 77.0659 124.455 76.8661C124.674 76.6759 124.921 76.5807 125.197 76.5807Z" fill="white"/>
<path d="M130.35 76.4951H131.406C131.729 76.4951 131.986 76.5998 132.176 76.809C132.376 77.0183 132.476 77.2561 132.476 77.5225V85.1563C132.476 85.4511 132.371 85.7032 132.162 85.9125C131.953 86.1218 131.701 86.2264 131.406 86.2264H130.35C130.036 86.2264 129.779 86.117 129.579 85.8982C129.389 85.6794 129.294 85.4321 129.294 85.1563V77.5225C129.294 77.2466 129.394 77.0088 129.594 76.809C129.803 76.5998 130.055 76.4951 130.35 76.4951ZM130.707 77.5653C130.612 77.5653 130.526 77.6033 130.45 77.6794C130.393 77.7555 130.364 77.8364 130.364 77.922V84.8423C130.364 84.9375 130.402 85.0183 130.478 85.0849C130.545 85.161 130.621 85.1991 130.707 85.1991H131.063C131.158 85.1991 131.239 85.161 131.306 85.0849C131.373 85.0183 131.406 84.9375 131.406 84.8423V77.922C131.406 77.8174 131.373 77.7317 131.306 77.6652C131.239 77.5986 131.158 77.5653 131.063 77.5653H130.707Z" fill="white"/>
</svg>
