<svg width="135" height="89" viewBox="0 0 135 89" fill="none" xmlns="http://www.w3.org/2000/svg">
<path d="M0.397461 0H134.315C134.443 0.293454 134.574 0.467721 134.451 0.790009C134.415 0.883422 134.365 0.970757 134.316 1.05695C134.501 1.3533 134.524 1.59248 134.533 1.93587C134.672 7.07953 134.545 12.2651 134.546 17.4125L134.548 47.7918C134.547 52.7888 134.547 55.5903 134.546 60.5873C134.546 61.8509 134.751 64.2359 134.5 65.3906C134.471 65.5243 134.424 65.6527 134.376 65.7811C134.653 66.4708 134.691 73.7801 134.437 74.4127C134.404 74.4946 134.363 74.568 134.317 74.6431C134.432 74.8312 134.502 75.0093 134.521 75.2302C134.632 76.5461 134.705 86.9681 134.498 87.8353C134.462 87.987 134.396 88.1234 134.315 88.255H2.62238H0.397461V0Z" fill="white"/>
<path d="M25.4658 50.4636C25.7603 46.8475 26.6506 43.5769 29.5501 41.1276C31.8558 39.18 34.9045 38.3743 37.8942 38.6222C41.1327 38.8907 44.2145 40.3491 46.3198 42.833C48.0262 44.8463 49.0691 47.7389 49.1235 50.3871C54.2772 50.3804 59.4665 50.5043 64.6161 50.3304C62.6988 50.8935 60.8134 51.5047 59.0246 52.4023C52.9419 55.4539 48.0429 61.109 44.8264 66.9836C43.5216 69.3663 42.2021 72.0931 41.64 74.7591L134.602 74.8541V75.3837V87.8285V88.3581H0.443917C0.443917 88.3581 0.301803 79.1121 0.414629 74.5893H5.96175H8.07494C8.10444 66.4607 7.84048 58.4915 8.0078 50.3668L25.4658 50.4636Z" fill="#111111"/>
<path d="M0.397672 0H134.314C134.444 0.293454 134.578 0.467721 134.452 0.790009C134.416 0.883422 134.365 0.970757 134.314 1.05695C134.504 1.3533 134.526 1.59248 134.536 1.93587C134.678 7.07953 134.549 12.2651 134.55 17.4125L134.551 47.7918L134.55 60.5873C134.55 61.8509 134.55 63.9452 134.502 65.3906C134.502 65.3906 134.63 76.9065 134.63 75.0431C134.276 73.045 135.158 66.9154 131.929 59.7803C128.699 52.6452 117.096 30.5408 109.428 25.2241C107.982 24.2217 106.107 23.6355 104.346 23.9613C101.982 24.3983 100.522 26.6646 99.2615 28.5136C95.9642 33.3503 93.0312 39.0876 91.2163 44.6395C90.6723 46.3043 90.0647 50.0987 89.4216 51.3163C83.7395 48.8119 73.6466 49.1754 67.4465 49.6395C65.8819 43.7384 61.7973 37.3203 56.4131 34.2038C52.5098 31.9444 48.596 31.7596 44.2334 32.371C43.5175 26.1476 41.7659 20.2655 37.8267 15.2979C36.9733 14.2217 36.0636 13.1203 34.9792 12.2672C34.1584 11.6216 33.2664 11.2072 32.2894 10.8545C32.2796 9.3435 32.2957 7.82742 32.2492 6.31736C32.7888 6.20025 33.8009 6.06132 34.1161 5.55457C34.1252 5.53987 34.1328 5.52428 34.1411 5.50917C33.9963 5.28221 33.8966 5.22107 33.6294 5.15644C33.1594 5.04271 32.4921 5.11644 32.0026 5.11972C31.876 4.62864 31.7971 4.20422 31.417 3.83951L31.1275 3.75877C30.6765 4.07347 30.6285 4.40621 30.5372 4.92144L30.5035 5.11977C29.5557 5.13103 28.6057 5.15566 27.658 5.14757C28.5249 5.70148 29.2926 6.1463 30.3037 6.39526C30.2522 7.87932 30.236 9.37495 30.1178 10.855C25.9841 11.7692 21.4935 18.8824 19.2783 22.3499C11.409 34.6679 5.15967 49.1351 1.83135 63.3612C1.18805 66.1109 0.446768 69.1898 0.370117 72.0139C0.397728 72.9292 0.397672 74.7789 0.397672 74.7789C2.56468 74.7789 3.77963 74.7789 5.94664 74.7789C3.83285 74.7789 0.397672 74.7789 0.397672 74.7789C0.397672 74.7789 0.54752 83.7233 0.552573 88.255H0.397672V0Z" fill="#111111"/>
<path d="M3.49545 76.581H4.56561C4.8605 76.581 5.11258 76.6856 5.32185 76.8949C5.53113 77.0946 5.63577 77.342 5.63577 77.6369V78.6928H4.56561V77.965C4.56561 77.8699 4.53231 77.7891 4.46573 77.7225C4.38963 77.6464 4.30401 77.6083 4.20889 77.6083H3.85217C3.75704 77.6083 3.67619 77.6464 3.6096 77.7225C3.5335 77.7891 3.49545 77.8699 3.49545 77.965V84.7427C3.49545 84.8473 3.52874 84.933 3.59533 84.9995C3.67143 85.0661 3.75704 85.0994 3.85217 85.0994H4.20889C4.30401 85.0994 4.38487 85.0661 4.45146 84.9995C4.52756 84.933 4.56561 84.8473 4.56561 84.7427V83.9722H5.63577V85.0709C5.63577 85.3658 5.53113 85.6179 5.32185 85.8271C5.11258 86.0364 4.8605 86.141 4.56561 86.141H3.49545C3.3052 86.141 3.05312 86.0364 2.73921 85.8271C2.52993 85.7035 2.42529 85.4514 2.42529 85.0709V77.6369C2.42529 77.323 2.53469 77.0661 2.75347 76.8663C2.97226 76.6761 3.21959 76.581 3.49545 76.581Z" fill="white"/>
<path d="M7.27857 76.581H10.4748V77.6369H8.33446V80.8331H10.0324V81.889H8.33446V85.0852H10.4748V86.141H7.27857V76.581Z" fill="white"/>
<path d="M12.1189 76.5239H13.2176L15.044 82.7736L15.0583 76.5239H16.157V86.0554L16.1855 86.141H15.0583L13.2033 79.8771L13.2176 86.141H12.1475V76.581L12.1189 76.5239Z" fill="white"/>
<path d="M20.6182 76.5239V77.5798H19.548V86.141H18.4921V77.5798H17.4077V76.5239H20.6182Z" fill="white"/>
<path d="M23.3419 77.6083V80.619H24.041C24.1362 80.619 24.217 80.5857 24.2836 80.5192C24.3502 80.4526 24.3835 80.3717 24.3835 80.2766V77.965C24.3835 77.8604 24.3502 77.7748 24.2836 77.7082C24.217 77.6416 24.1362 77.6083 24.041 77.6083H23.3419ZM22.3002 76.581H24.3977C24.6831 76.581 24.9304 76.6856 25.1397 76.8949C25.349 77.1232 25.4536 77.3705 25.4536 77.6369V80.619C25.4536 80.9805 25.3442 81.2231 25.1255 81.3467C24.9162 81.4704 24.745 81.556 24.6118 81.6036L25.5107 86.141H24.4834L23.5987 81.6607H23.3419V86.141H22.3145L22.3002 76.581Z" fill="white"/>
<path d="M28.2094 76.4954H29.2653C29.5887 76.4954 29.8456 76.6 30.0358 76.8093C30.2356 77.0185 30.3354 77.2564 30.3354 77.5227V85.1565C30.3354 85.4514 30.2308 85.7035 30.0215 85.9127C29.8123 86.122 29.5602 86.2267 29.2653 86.2267H28.2094C27.8955 86.2267 27.6387 86.1173 27.4389 85.8985C27.2486 85.6797 27.1535 85.4324 27.1535 85.1565V77.5227C27.1535 77.2469 27.2534 77.009 27.4532 76.8093C27.6624 76.6 27.9145 76.4954 28.2094 76.4954ZM28.5661 77.5655C28.471 77.5655 28.3854 77.6036 28.3093 77.6797C28.2522 77.7558 28.2237 77.8366 28.2237 77.9222V84.8426C28.2237 84.9377 28.2617 85.0186 28.3378 85.0852C28.4044 85.1613 28.4805 85.1993 28.5661 85.1993H28.9228C29.018 85.1993 29.0988 85.1613 29.1654 85.0852C29.232 85.0186 29.2653 84.9377 29.2653 84.8426V77.9222C29.2653 77.8176 29.232 77.732 29.1654 77.6654C29.0988 77.5988 29.018 77.5655 28.9228 77.5655H28.5661Z" fill="white"/>
<path d="M35.7048 76.581H38.901V77.6369H36.7607V80.8331H38.4587V81.889H36.7607V85.0852H38.901V86.141H35.7048V76.581Z" fill="white"/>
<path d="M40.7877 76.581H41.8293L42.8567 79.7486L43.8698 76.581H44.8829L44.8686 86.141H43.7556L43.7699 79.4062L42.928 82.7736H42.7854L41.9007 79.4062L41.915 86.141H40.8163L40.7877 76.581Z" fill="white"/>
<path d="M46.8172 76.581H48.8861C49.2096 76.581 49.4712 76.6523 49.6709 76.795C49.8707 76.9377 49.9706 77.2183 49.9706 77.6369V80.6476C49.9706 80.9995 49.8659 81.2564 49.6567 81.4181C49.4474 81.5798 49.1905 81.6607 48.8861 81.6607H47.9159L47.8588 81.6749V86.141H46.8314L46.8172 76.581ZM47.8588 77.6083V80.619H48.558C48.6531 80.619 48.7339 80.5857 48.8005 80.5192C48.8671 80.4526 48.9004 80.3717 48.9004 80.2766V77.965C48.9004 77.8604 48.8671 77.7748 48.8005 77.7082C48.7339 77.6416 48.6531 77.6083 48.558 77.6083H47.8588Z" fill="white"/>
<path d="M52.9268 77.6083V80.619H53.6259C53.7211 80.619 53.8019 80.5857 53.8685 80.5192C53.9351 80.4526 53.9684 80.3717 53.9684 80.2766V77.965C53.9684 77.8604 53.9351 77.7748 53.8685 77.7082C53.8019 77.6416 53.7211 77.6083 53.6259 77.6083H52.9268ZM51.8851 76.581H53.9827C54.268 76.581 54.5154 76.6856 54.7246 76.8949C54.9339 77.1232 55.0385 77.3705 55.0385 77.6369V80.619C55.0385 80.9805 54.9292 81.2231 54.7104 81.3467C54.5011 81.4704 54.3299 81.556 54.1967 81.6036L55.0956 86.141H54.0683L53.1836 81.6607H52.9268V86.141H51.8994L51.8851 76.581Z" fill="white"/>
<path d="M56.9382 76.581H60.1344V77.6369H57.9941V80.8331H59.6921V81.889H57.9941V85.0852H60.1344V86.141H56.9382V76.581Z" fill="white"/>
<path d="M64.1329 86.1981H63.0913C62.8059 86.1981 62.5586 86.103 62.3493 85.9127C62.1495 85.713 62.0496 85.4704 62.0496 85.185V84.0578H63.1055V84.7998C63.1055 84.8949 63.1388 84.9805 63.2054 85.0566C63.272 85.1232 63.3529 85.1565 63.448 85.1565H63.7904C63.8856 85.1565 63.9664 85.1232 64.033 85.0566C64.0996 84.9805 64.1329 84.8949 64.1329 84.7998V82.4454C64.1329 82.3503 64.0996 82.2552 64.033 82.1601C63.9664 82.0649 63.8856 82.0031 63.7904 81.9746L63.0199 81.7463C62.7155 81.6511 62.4634 81.4989 62.2637 81.2897C62.0734 81.0709 61.9783 80.8236 61.9783 80.5477V77.5512C61.9783 77.2564 62.0782 77.009 62.2779 76.8093C62.4777 76.6095 62.725 76.5096 63.0199 76.5096H64.0615C64.3469 76.5096 64.5895 76.6095 64.7892 76.8093C64.9985 77.009 65.1032 77.2564 65.1032 77.5512V78.6642H64.0473V77.9222C64.0473 77.8271 64.014 77.7463 63.9474 77.6797C63.8808 77.6131 63.7999 77.5798 63.7048 77.5798H63.3624C63.2672 77.5798 63.1864 77.6131 63.1198 77.6797C63.0532 77.7463 63.0199 77.8271 63.0199 77.9222V80.2052C63.0199 80.3004 63.0532 80.405 63.1198 80.5192C63.1959 80.6238 63.2768 80.6904 63.3624 80.7189L64.1329 80.9615C64.4373 81.0566 64.6894 81.2041 64.8891 81.4038C65.0794 81.6131 65.1745 81.8557 65.1745 82.1315V85.185C65.1745 85.4704 65.0699 85.713 64.8606 85.9127C64.6608 86.103 64.4183 86.1981 64.1329 86.1981Z" fill="white"/>
<path d="M70.8418 86.141H69.7431L69.4577 84.0007H68.1878L67.9024 86.141H66.8037L68.3019 76.5096H69.3435L70.8418 86.141ZM68.3305 82.9163H69.315L68.8156 79.2207L68.3305 82.9163Z" fill="white"/>
<path d="M73.6306 77.6083V80.619H74.3298C74.4249 80.619 74.5058 80.5857 74.5724 80.5192C74.639 80.4526 74.6723 80.3717 74.6723 80.2766V77.965C74.6723 77.8604 74.639 77.7748 74.5724 77.7082C74.5058 77.6416 74.4249 77.6083 74.3298 77.6083H73.6306ZM72.589 76.581H74.6865C74.9719 76.581 75.2192 76.6856 75.4285 76.8949C75.6378 77.1232 75.7424 77.3705 75.7424 77.6369V80.619C75.7424 80.9805 75.633 81.2231 75.4142 81.3467C75.205 81.4704 75.0337 81.556 74.9006 81.6036L75.7995 86.141H74.7721L73.8875 81.6607H73.6306V86.141H72.6033L72.589 76.581Z" fill="white"/>
<path d="M78.7408 86.141H77.6849V76.581H78.7408V86.141Z" fill="white"/>
<path d="M84.4293 86.141H83.3306L83.0452 84.0007H81.7753L81.4899 86.141H80.3912L81.8895 76.5096H82.9311L84.4293 86.141ZM81.918 82.9163H82.9025L82.4031 79.2207L81.918 82.9163Z" fill="white"/>
<path d="M87.2467 76.581V85.0709H89.387V86.141H86.1766V76.581H87.2467Z" fill="white"/>
<path d="M94.4081 76.581H95.4497L96.4771 79.7486L97.4902 76.581H98.5032L98.489 86.141H97.376L97.3903 79.4062L96.5484 82.7736H96.4057L95.5211 79.4062L95.5353 86.141H94.4366L94.4081 76.581Z" fill="white"/>
<path d="M101.536 76.4954H102.592C102.916 76.4954 103.172 76.6 103.363 76.8093C103.562 77.0185 103.662 77.2564 103.662 77.5227V85.1565C103.662 85.4514 103.558 85.7035 103.348 85.9127C103.139 86.122 102.887 86.2267 102.592 86.2267H101.536C101.222 86.2267 100.965 86.1173 100.766 85.8985C100.575 85.6797 100.48 85.4324 100.48 85.1565V77.5227C100.48 77.2469 100.58 77.009 100.78 76.8093C100.989 76.6 101.241 76.4954 101.536 76.4954ZM101.893 77.5655C101.798 77.5655 101.712 77.6036 101.636 77.6797C101.579 77.7558 101.551 77.8366 101.551 77.9222V84.8426C101.551 84.9377 101.589 85.0186 101.665 85.0852C101.731 85.1613 101.807 85.1993 101.893 85.1993H102.25C102.345 85.1993 102.426 85.1613 102.492 85.0852C102.559 85.0186 102.592 84.9377 102.592 84.8426V77.9222C102.592 77.8176 102.559 77.732 102.492 77.6654C102.426 77.5988 102.345 77.5655 102.25 77.5655H101.893Z" fill="white"/>
<path d="M105.648 76.5239H106.718V84.7712C106.718 84.8569 106.746 84.933 106.803 84.9995C106.86 85.0661 106.913 85.1042 106.96 85.1137C106.998 85.1137 107.022 85.1137 107.032 85.1137C107.041 85.1137 107.051 85.1185 107.06 85.128H107.417C107.502 85.128 107.579 85.0947 107.645 85.0281C107.721 84.952 107.759 84.8664 107.759 84.7712V76.5239H108.829V85.128C108.829 85.4229 108.725 85.6749 108.516 85.8842C108.306 86.103 108.054 86.2124 107.759 86.2124H106.703C106.409 86.2124 106.161 86.103 105.961 85.8842C105.752 85.6749 105.648 85.4229 105.648 85.128V76.5239Z" fill="white"/>
<path d="M111.87 77.6083V80.619H112.569C112.664 80.619 112.745 80.5857 112.812 80.5192C112.878 80.4526 112.912 80.3717 112.912 80.2766V77.965C112.912 77.8604 112.878 77.7748 112.812 77.7082C112.745 77.6416 112.664 77.6083 112.569 77.6083H111.87ZM110.828 76.581H112.926C113.211 76.581 113.459 76.6856 113.668 76.8949C113.877 77.1232 113.982 77.3705 113.982 77.6369V80.619C113.982 80.9805 113.872 81.2231 113.654 81.3467C113.444 81.4704 113.273 81.556 113.14 81.6036L114.039 86.141H113.011L112.127 81.6607H111.87V86.141H110.843L110.828 76.581Z" fill="white"/>
<path d="M117.037 86.141H115.981V76.581H117.037V86.141Z" fill="white"/>
<path d="M121.142 86.1981H120.1C119.815 86.1981 119.568 86.103 119.358 85.9127C119.159 85.713 119.059 85.4704 119.059 85.185V84.0578H120.115V84.7998C120.115 84.8949 120.148 84.9805 120.214 85.0566C120.281 85.1232 120.362 85.1565 120.457 85.1565H120.799C120.895 85.1565 120.975 85.1232 121.042 85.0566C121.109 84.9805 121.142 84.8949 121.142 84.7998V82.4454C121.142 82.3503 121.109 82.2552 121.042 82.1601C120.975 82.0649 120.895 82.0031 120.799 81.9746L120.029 81.7463C119.725 81.6511 119.472 81.4989 119.273 81.2897C119.082 81.0709 118.987 80.8236 118.987 80.5477V77.5512C118.987 77.2564 119.087 77.009 119.287 76.8093C119.487 76.6095 119.734 76.5096 120.029 76.5096H121.071C121.356 76.5096 121.598 76.6095 121.798 76.8093C122.008 77.009 122.112 77.2564 122.112 77.5512V78.6642H121.056V77.9222C121.056 77.8271 121.023 77.7463 120.956 77.6797C120.89 77.6131 120.809 77.5798 120.714 77.5798H120.371C120.276 77.5798 120.195 77.6131 120.129 77.6797C120.062 77.7463 120.029 77.8271 120.029 77.9222V80.2052C120.029 80.3004 120.062 80.405 120.129 80.5192C120.205 80.6238 120.286 80.6904 120.371 80.7189L121.142 80.9615C121.446 81.0566 121.698 81.2041 121.898 81.4038C122.088 81.6131 122.183 81.8557 122.183 82.1315V85.185C122.183 85.4704 122.079 85.713 121.87 85.9127C121.67 86.103 121.427 86.1981 121.142 86.1981Z" fill="white"/>
<path d="M125.197 76.581H126.267C126.562 76.581 126.814 76.6856 127.023 76.8949C127.232 77.0946 127.337 77.342 127.337 77.6369V78.6928H126.267V77.965C126.267 77.8699 126.234 77.7891 126.167 77.7225C126.091 77.6464 126.005 77.6083 125.91 77.6083H125.553C125.458 77.6083 125.378 77.6464 125.311 77.7225C125.235 77.7891 125.197 77.8699 125.197 77.965V84.7427C125.197 84.8473 125.23 84.933 125.297 84.9995C125.373 85.0661 125.458 85.0994 125.553 85.0994H125.91C126.005 85.0994 126.086 85.0661 126.153 84.9995C126.229 84.933 126.267 84.8473 126.267 84.7427V83.9722H127.337V85.0709C127.337 85.3658 127.232 85.6179 127.023 85.8271C126.814 86.0364 126.562 86.141 126.267 86.141H125.197C125.007 86.141 124.754 86.0364 124.441 85.8271C124.231 85.7035 124.127 85.4514 124.127 85.0709V77.6369C124.127 77.323 124.236 77.0661 124.455 76.8663C124.674 76.6761 124.921 76.581 125.197 76.581Z" fill="white"/>
<path d="M130.35 76.4954H131.406C131.729 76.4954 131.986 76.6 132.176 76.8093C132.376 77.0185 132.476 77.2564 132.476 77.5227V85.1565C132.476 85.4514 132.371 85.7035 132.162 85.9127C131.953 86.122 131.7 86.2267 131.406 86.2267H130.35C130.036 86.2267 129.779 86.1173 129.579 85.8985C129.389 85.6797 129.294 85.4324 129.294 85.1565V77.5227C129.294 77.2469 129.394 77.009 129.593 76.8093C129.803 76.6 130.055 76.4954 130.35 76.4954ZM130.706 77.5655C130.611 77.5655 130.526 77.6036 130.45 77.6797C130.392 77.7558 130.364 77.8366 130.364 77.9222V84.8426C130.364 84.9377 130.402 85.0186 130.478 85.0852C130.545 85.1613 130.621 85.1993 130.706 85.1993H131.063C131.158 85.1993 131.239 85.1613 131.306 85.0852C131.372 85.0186 131.406 84.9377 131.406 84.8426V77.9222C131.406 77.8176 131.372 77.732 131.306 77.6654C131.239 77.5988 131.158 77.5655 131.063 77.5655H130.706Z" fill="white"/>
</svg>
