<svg width="135" height="89" viewBox="0 0 135 89" fill="none" xmlns="http://www.w3.org/2000/svg">
<path d="M0.397672 0H134.314C134.444 0.293454 134.578 0.467721 134.452 0.790009C134.416 0.883422 134.365 0.970757 134.314 1.05695C134.504 1.3533 134.526 1.59248 134.536 1.93587C134.678 7.07953 134.549 12.2651 134.55 17.4125L134.551 47.7918L134.55 60.5873C134.55 61.8509 134.55 63.9452 134.502 65.3906C134.502 65.3906 134.63 76.9065 134.63 75.0431C134.276 73.045 135.158 66.9154 131.929 59.7803C128.699 52.6452 117.096 30.5408 109.428 25.2241C107.982 24.2217 106.107 23.6355 104.346 23.9613C101.982 24.3983 100.522 26.6646 99.2615 28.5136C95.9642 33.3503 93.0312 39.0876 91.2163 44.6395C90.6723 46.3043 90.0647 50.0987 89.4216 51.3163C83.7395 48.8119 73.6466 49.1754 67.4465 49.6395C65.8819 43.7384 61.7973 37.3203 56.4131 34.2038C52.5098 31.9444 48.596 31.7596 44.2334 32.371C43.5175 26.1476 41.7659 20.2655 37.8267 15.2979C36.9733 14.2217 36.0636 13.1203 34.9792 12.2672C34.1584 11.6216 33.2664 11.2072 32.2894 10.8545C32.2796 9.3435 32.2957 7.82742 32.2492 6.31736C32.7888 6.20025 33.8009 6.06132 34.1161 5.55457C34.1252 5.53987 34.1328 5.52428 34.1411 5.50917C33.9963 5.28221 33.8966 5.22107 33.6294 5.15644C33.1594 5.04271 32.4921 5.11644 32.0026 5.11972C31.876 4.62864 31.7971 4.20422 31.417 3.83951L31.1275 3.75877C30.6765 4.07347 30.6285 4.40621 30.5372 4.92144L30.5035 5.11977C29.5557 5.13103 28.6057 5.15566 27.658 5.14757C28.5249 5.70148 29.2926 6.1463 30.3037 6.39526C30.2522 7.87932 30.236 9.37495 30.1178 10.855C25.9841 11.7692 21.4935 18.8824 19.2783 22.3499C11.409 34.6679 5.15967 49.1351 1.83135 63.3612C1.18805 66.1109 0.446768 69.1898 0.370117 72.0139C0.397728 72.9292 0.397672 74.7789 0.397672 74.7789C2.56468 74.7789 3.77963 74.7789 5.94664 74.7789C3.83285 74.7789 0.397672 74.7789 0.397672 74.7789C0.397672 74.7789 0.54752 83.7233 0.552573 88.255H0.397672V0Z" fill="#111111"/>
</svg>
